<svg width="2640" height="1266" viewBox="0 0 2640 1266" fill="none" xmlns="http://www.w3.org/2000/svg">
<path d="M2245.61 145.305C2244.54 151.467 2242.93 157.63 2242.66 163.524C2242.39 223.269 2242.66 282.746 2241.86 342.491C2241.32 385.09 2240.25 427.688 2237.84 470.287C2234.62 529.496 2237.57 588.17 2246.95 646.575C2249.36 662.114 2249.36 678.457 2248.02 694.264C2246.41 710.875 2236.23 717.841 2219.62 717.573C2189.08 717.037 2164.96 694.264 2166.3 662.65C2167.64 635.859 2172.47 609.067 2178.63 583.079C2202.74 481.807 2211.31 379.196 2203.54 275.78C2200.06 229.967 2190.95 184.421 2186.13 138.34C2183.72 115.567 2183.45 92.2582 2185.06 69.4854C2186.67 47.7842 2199.26 30.6376 2215.87 16.974C2232.75 3.04236 2248.82 5.45359 2256.86 25.5472C2264.36 44.0334 2269.99 63.8592 2272.4 83.6849C2278.02 128.695 2289.81 171.293 2308.83 212.552C2350.63 303.911 2379.3 400.093 2407.7 496.275C2422.16 545.035 2435.83 594.064 2450.29 643.092C2451.9 648.183 2453.51 653.541 2456.46 658.096C2458.6 661.578 2462.35 663.99 2465.57 666.937C2467.71 663.722 2471.19 660.507 2471.73 657.024C2474.14 641.485 2476.55 625.946 2477.62 610.407C2485.66 503.24 2495.3 396.342 2516.2 290.784C2521.02 266.403 2528.79 242.023 2530.94 217.375C2533.62 185.493 2532.01 153.343 2532.54 121.461C2532.81 97.8844 2531.47 74.0399 2533.62 50.4634C2535.76 28.4943 2545.4 19.6531 2561.21 19.3852C2580.5 19.1173 2598.18 31.7093 2600.59 50.7313C2602.47 65.4666 2602.74 81.0057 2599.79 95.4732C2590.68 138.608 2580.23 181.742 2569.25 224.608C2557.73 270.154 2553.98 316.771 2549.15 363.389C2542.72 424.741 2536.3 485.826 2530.94 547.179C2525.58 607.192 2521.02 667.205 2517.01 727.486C2516.2 738.47 2518.88 749.723 2521.56 760.439C2529.6 790.714 2519.42 803.574 2488.07 800.091C2460.74 797.144 2440.92 783.212 2426.99 759.903C2412.79 736.595 2406.89 710.339 2400.19 684.083C2378.22 599.958 2355.45 515.832 2332.95 431.707C2313.12 357.494 2293.83 283.014 2273.74 208.801C2268.92 191.119 2262.75 173.972 2256.59 156.826C2254.98 152.271 2251.77 148.52 2249.09 144.234C2248.02 145.038 2246.68 145.305 2245.61 145.305Z" fill="#B5DAD9"/>
<path d="M1127.07 106.459C1144.21 104.852 1161.09 101.904 1177.97 102.172C1203.42 102.708 1229.41 103.244 1254.33 108.334C1303.35 118.515 1333.09 152.54 1353.72 195.943C1375.42 241.756 1386.94 290.785 1398.73 339.545C1405.16 366.337 1414 392.593 1419.63 419.384C1430.61 471.092 1433.29 523.603 1433.56 576.115C1433.83 631.305 1433.56 686.496 1434.36 741.687C1435.17 783.749 1438.12 825.544 1448.83 866.535C1450.44 872.697 1448.83 876.984 1444.01 880.735C1433.56 888.772 1418.02 889.04 1406.23 880.735C1395.25 872.965 1391.5 861.713 1395.78 848.585C1396.32 846.441 1397.12 844.566 1398.2 840.815C1392.03 841.887 1386.94 842.423 1382.12 843.494C1352.65 849.924 1323.98 858.766 1293.17 857.962C1247.9 856.622 1213.33 836.797 1187.88 800.36C1163.23 765.263 1151.45 724.808 1145.28 683.013C1133.23 601.567 1137.25 520.388 1160.55 441.353C1168.59 414.294 1176.36 385.627 1198.06 365.801C1216.55 348.923 1237.98 334.991 1259.15 321.059C1276.56 309.539 1295.05 299.894 1313.27 289.713C1319.43 286.23 1322.11 281.408 1322.64 274.442C1325.86 234.791 1310.32 204.248 1273.88 187.637C1250.84 176.921 1225.66 171.027 1201.55 162.185C1184.94 156.291 1168.32 150.397 1152.52 142.896C1138.85 136.198 1129.74 124.409 1127.07 106.459ZM1400.34 722.397C1400.88 722.397 1401.41 722.129 1401.68 722.129C1396.05 671.225 1389.89 620.321 1384.53 569.417C1379.17 518.513 1374.62 467.341 1369.8 416.437C1367.92 395.808 1366.58 374.91 1357.2 355.62C1347.29 335.795 1332.82 328.829 1311.39 334.455C1304.43 336.33 1297.46 339.545 1291.03 342.76C1252.18 362.586 1229.41 396.076 1212.53 434.388C1181.18 505.117 1170.2 579.33 1178.24 655.954C1182.26 693.998 1191.37 730.434 1213.6 762.584C1234.5 792.591 1262.63 808.665 1299.87 807.862C1329.34 807.326 1355.33 796.341 1381.32 783.749C1390.96 778.927 1396.05 771.693 1397.39 761.512C1398.46 748.652 1399.27 735.524 1400.34 722.397Z" fill="#B5DAD9"/>
<path d="M2060.21 811.341C2050.03 813.485 2042.53 814.288 2035.3 816.432C1994.57 827.952 1953.31 826.345 1912.32 818.843C1887.41 814.288 1866.51 801.696 1851.5 781.335C1829.8 751.328 1812.39 718.643 1805.16 681.938C1802.21 666.667 1804.08 650.056 1803.82 634.249C1803.28 609.333 1803.55 584.417 1802.21 559.501C1797.65 482.877 1809.98 410.54 1853.65 345.972C1875.89 313.018 1906.16 289.978 1943.94 277.654C1949.29 275.778 1954.92 274.171 1960.28 272.295C1979.57 265.33 1987.34 251.934 1983.59 231.84C1975.01 184.955 1927.59 139.945 1880.17 133.783C1865.44 131.908 1850.7 130.836 1836.23 128.157C1815.34 124.138 1800.6 111.546 1789.62 93.8637C1781.58 81.0038 1785.33 73.77 1800.07 74.5738C1844.54 77.2529 1889.01 80.4679 1933.22 84.2187C1953.31 85.8262 1968.32 97.0787 1980.1 112.886C2002.88 143.16 2019.22 177.185 2029.67 213.354C2048.15 276.582 2063.43 340.882 2080.3 404.646C2093.97 457.425 2092.9 511.276 2094.24 565.127C2095.04 601.028 2097.45 636.928 2096.92 672.829C2096.65 700.96 2093.7 729.091 2091.29 757.222C2089.68 776.244 2092.9 794.195 2101.47 811.073C2104.15 816.164 2106.83 821.254 2108.97 826.612C2114.6 840.276 2110.85 849.921 2097.45 855.547C2085.93 860.37 2073.87 861.709 2063.96 852.6C2052.71 841.616 2051.91 828.488 2060.21 811.341ZM1970.46 778.12C1996.72 779.191 2018.68 768.207 2040.39 755.883C2051.64 749.453 2059.14 739.004 2059.41 726.412C2059.94 702.568 2059.41 678.455 2057 654.611C2048.15 568.61 2038.51 482.609 2028.87 396.608C2026.19 373.835 2023.51 350.795 2018.95 328.29C2014.93 309 2002.34 301.23 1982.78 303.641C1976.89 304.177 1970.73 305.785 1965.1 308.196C1929.74 323.199 1901.07 345.972 1884.19 381.337C1857.4 438.135 1842.13 497.88 1837.84 560.84C1835.16 604.243 1837.31 647.109 1847.49 689.708C1857.93 733.914 1884.19 762.313 1928.4 772.761C1942.33 775.708 1956.53 776.244 1970.46 778.12Z" fill="#B5DAD9"/>
<path d="M1616.81 726.683C1617.35 714.091 1618.15 701.499 1618.42 688.907C1620.83 577.99 1645.48 472.431 1694.51 372.766C1713.53 333.919 1732.55 295.071 1752.91 257.027C1759.34 244.703 1768.72 233.718 1778.1 223.27C1789.35 211.213 1797.92 212.821 1805.69 227.556C1810.25 236.398 1814 245.775 1816.41 255.152C1817.48 259.17 1815.87 264.529 1813.73 268.547C1764.43 358.835 1722.37 452.873 1682.99 547.715C1669.59 580.133 1658.61 613.89 1650.84 648.184C1645.48 672.564 1648.16 698.552 1646.55 723.736C1645.21 744.633 1643.87 765.263 1641.19 785.892C1639.05 803.307 1629.14 809.469 1611.99 806.254C1587.61 801.699 1574.75 786.696 1572.34 758.029C1569.93 729.362 1568.05 700.427 1566.71 671.76C1561.89 552.538 1545.55 435.191 1513.66 319.987C1505.36 289.981 1499.2 259.706 1492.23 229.432C1488.75 214.428 1493.3 204.784 1506.16 199.693C1521.17 193.531 1532.95 198.889 1535.37 214.964C1540.19 246.846 1543.13 279.264 1548.23 311.146C1554.12 349.19 1562.42 386.698 1568.32 424.742C1577.43 484.219 1584.93 543.964 1593.23 603.71C1598.33 640.146 1603.42 676.583 1608.77 713.019C1609.58 717.842 1611.45 722.664 1612.79 727.487C1614.13 726.951 1615.47 726.951 1616.81 726.683Z" fill="#B5DAD9"/>
<path d="M1096.25 781.606C1057.94 788.572 1020.97 790.447 983.726 790.447C937.644 790.447 891.563 794.734 845.481 797.145C834.229 797.681 822.977 798.753 811.992 798.753C790.291 798.753 775.823 788.036 766.714 768.746C753.586 741.151 749.032 711.948 750.371 681.674C753.318 616.302 757.873 551.199 751.443 485.827C749.032 462.251 743.674 438.942 742.334 415.366C740.459 385.359 740.459 355.085 741.262 325.078C743.138 255.956 739.119 187.37 729.474 119.051C725.723 92.7955 721.437 66.5398 718.222 40.0162C713.399 -1.77861 727.866 -2.85027 761.892 1.97221C764.571 2.24013 768.054 7.33051 768.322 10.2776C778.502 99.4934 783.057 189.245 779.842 278.997C779.038 304.717 775.02 330.169 775.823 355.621C777.163 398.487 781.717 441.354 784.397 483.952C787.344 532.177 788.951 580.669 791.898 628.894C794.042 665.331 797.792 701.767 800.204 738.204C800.74 747.045 805.026 749.992 812.796 749.992C828.603 750.26 844.142 750.796 859.949 750.796C898.261 750.528 936.305 751.332 973.813 759.369C997.925 764.46 1020.97 760.441 1043.74 752.939C1054.19 749.456 1064.37 745.973 1075.08 743.294C1090.36 739.543 1096.25 743.562 1097.32 759.101C1098.13 766.603 1096.79 774.104 1096.25 781.606Z" fill="#B5DAD9"/>
<path d="M190.425 516.101C192.032 511.278 193.908 506.456 194.979 501.365C204.892 444.299 213.198 386.965 224.45 330.167C234.631 279.263 249.366 229.431 268.924 181.206C273.746 169.418 279.908 157.898 287.142 147.449C294.912 136.197 302.413 136.732 310.987 147.449C311.79 148.521 312.594 149.592 313.398 150.664C327.597 170.758 327.865 171.829 314.737 192.459C271.335 261.045 245.347 335.794 235.434 416.168C229.005 468.412 221.771 520.387 217.484 572.631C215.341 599.154 219.36 626.214 220.431 653.005C220.699 660.775 220.431 668.277 219.36 676.046C218.556 683.28 214.537 687.299 206.232 687.031C198.462 686.495 190.693 688.102 183.191 687.031C179.976 686.495 175.957 682.208 174.886 678.993C168.991 657.828 162.561 636.395 159.079 614.694C137.913 479.664 96.3864 350.797 46.0183 224.341C43.0712 216.571 40.392 208.534 38.5166 200.496C32.0867 174.241 46.5541 157.63 73.3456 159.773C92.9035 161.381 100.941 169.686 100.405 189.512C100.137 198.353 99.3334 207.462 97.9939 216.303C93.7072 246.31 100.137 274.173 112.997 301.233C134.43 345.706 152.381 391.788 164.437 439.745C169.527 459.838 174.082 480.2 179.44 500.294C181.048 506.188 183.995 511.546 186.406 516.904C187.746 516.369 189.085 516.369 190.425 516.101Z" fill="#B5DAD9"/>
<path d="M690.086 508.605C687.942 545.042 683.388 590.052 671.867 633.722C653.113 704.184 592.564 743.031 518.887 733.922C486.47 729.903 455.124 722.402 426.189 706.863C382.786 683.286 352.244 648.457 338.848 600.5C322.505 542.363 316.343 483.689 333.49 424.212C344.475 385.9 363.229 351.875 388.681 321.868C416.812 288.647 454.052 276.59 496.918 278.198C570.059 281.145 649.094 336.336 675.35 404.118C684.459 427.695 690.086 463.863 690.086 508.605ZM346.35 505.926C347.69 516.643 349.833 536.468 353.048 556.562C369.123 655.691 466.644 720.794 564.969 697.754C613.194 686.233 638.378 651.404 649.094 605.859C656.06 575.584 659.811 544.506 662.49 513.696C665.437 479.67 663.562 444.841 648.826 413.763C617.748 347.856 563.897 313.027 491.56 307.937C456.999 305.525 426.993 317.849 404.22 344.373C366.712 387.775 346.886 438.411 346.35 505.926Z" fill="#B5DAD9"/>
<path d="M98.23 1217.18C82.0933 1217.18 67.5233 1213.57 54.52 1206.36C41.6733 1199.16 31.49 1189.21 23.97 1176.52C16.6067 1163.83 12.925 1149.57 12.925 1133.75C12.925 1117.93 16.6067 1103.67 23.97 1090.98C31.49 1078.29 41.6733 1068.34 54.52 1061.13C67.5233 1053.93 82.0933 1050.32 98.23 1050.32C110.137 1050.32 121.103 1052.28 131.13 1056.2C141.157 1059.96 149.695 1065.6 156.745 1073.12L149.225 1080.87C136.065 1067.87 119.223 1061.37 98.7 1061.37C84.9133 1061.37 72.38 1064.5 61.1 1070.77C49.82 1077.04 40.9683 1085.73 34.545 1096.85C28.1217 1107.82 24.91 1120.12 24.91 1133.75C24.91 1147.38 28.1217 1159.76 34.545 1170.88C40.9683 1181.85 49.82 1190.46 61.1 1196.73C72.38 1203 84.9133 1206.13 98.7 1206.13C119.067 1206.13 135.908 1199.55 149.225 1186.39L156.745 1194.14C149.695 1201.66 141.078 1207.38 130.895 1211.3C120.868 1215.22 109.98 1217.18 98.23 1217.18ZM204.408 1120.12C208.168 1111.19 214.043 1104.37 222.033 1099.67C230.023 1094.82 239.736 1092.39 251.173 1092.39V1103.9L248.353 1103.67C234.723 1103.67 224.069 1107.98 216.393 1116.59C208.716 1125.05 204.878 1136.88 204.878 1152.08V1216H193.128V1093.33H204.408V1120.12ZM332.69 1206.36C340.68 1206.36 348.044 1204.95 354.78 1202.13C361.674 1199.16 367.392 1194.85 371.935 1189.21L378.75 1196.96C373.424 1203.54 366.765 1208.56 358.775 1212C350.785 1215.29 342.012 1216.94 332.455 1216.94C320.235 1216.94 309.269 1214.28 299.555 1208.95C289.999 1203.62 282.479 1196.26 276.995 1186.86C271.669 1177.46 269.005 1166.73 269.005 1154.66C269.005 1142.6 271.512 1131.87 276.525 1122.47C281.695 1113.07 288.824 1105.71 297.91 1100.38C306.997 1095.05 317.259 1092.39 328.695 1092.39C339.349 1092.39 348.905 1094.9 357.365 1099.91C365.982 1104.77 372.797 1111.58 377.81 1120.35C382.98 1128.97 385.8 1138.68 386.27 1149.49L282.635 1169.7C285.612 1180.98 291.565 1189.91 300.495 1196.49C309.425 1203.07 320.157 1206.36 332.69 1206.36ZM328.695 1102.73C319.452 1102.73 311.149 1104.92 303.785 1109.31C296.422 1113.54 290.704 1119.57 286.63 1127.4C282.557 1135.08 280.52 1143.85 280.52 1153.72C280.52 1155.45 280.677 1157.88 280.99 1161.01L374.52 1142.68C373.424 1135.32 370.839 1128.58 366.765 1122.47C362.692 1116.36 357.365 1111.58 350.785 1108.13C344.205 1104.53 336.842 1102.73 328.695 1102.73ZM531.66 1093.33V1216H520.145V1187.09C515.288 1196.65 508.473 1204.01 499.7 1209.18C490.927 1214.35 480.978 1216.94 469.855 1216.94C458.418 1216.94 448.078 1214.28 438.835 1208.95C429.592 1203.62 422.307 1196.26 416.98 1186.86C411.81 1177.46 409.225 1166.73 409.225 1154.66C409.225 1142.6 411.81 1131.87 416.98 1122.47C422.307 1112.91 429.592 1105.55 438.835 1100.38C448.078 1095.05 458.418 1092.39 469.855 1092.39C480.822 1092.39 490.613 1094.97 499.23 1100.14C508.003 1105.31 514.897 1112.52 519.91 1121.76V1093.33H531.66ZM470.56 1206.36C479.96 1206.36 488.342 1204.17 495.705 1199.78C503.225 1195.4 509.1 1189.29 513.33 1181.46C517.717 1173.62 519.91 1164.69 519.91 1154.66C519.91 1144.64 517.717 1135.71 513.33 1127.87C509.1 1120.04 503.225 1113.93 495.705 1109.54C488.342 1105.16 479.96 1102.96 470.56 1102.96C461.16 1102.96 452.7 1105.16 445.18 1109.54C437.817 1113.93 431.942 1120.04 427.555 1127.87C423.325 1135.71 421.21 1144.64 421.21 1154.66C421.21 1164.69 423.325 1173.62 427.555 1181.46C431.942 1189.29 437.817 1195.4 445.18 1199.78C452.7 1204.17 461.16 1206.36 470.56 1206.36ZM638.304 1208.25C635.327 1211.06 631.567 1213.26 627.024 1214.82C622.637 1216.24 618.016 1216.94 613.159 1216.94C602.506 1216.94 594.281 1214.04 588.484 1208.25C582.687 1202.29 579.789 1194.07 579.789 1183.57V1066.54H591.539V1093.33H630.549V1103.43H591.539V1182.39C591.539 1190.38 593.419 1196.49 597.179 1200.72C601.096 1204.8 606.814 1206.83 614.334 1206.83C622.011 1206.83 628.356 1204.56 633.369 1200.02L638.304 1208.25ZM670.931 1093.33H682.681V1216H670.931V1093.33ZM676.806 1063.48C674.142 1063.48 671.871 1062.62 669.991 1060.9C668.111 1059.02 667.171 1056.75 667.171 1054.08C667.171 1051.42 668.111 1049.15 669.991 1047.27C671.871 1045.39 674.142 1044.45 676.806 1044.45C679.469 1044.45 681.741 1045.39 683.621 1047.27C685.501 1048.99 686.441 1051.19 686.441 1053.85C686.441 1056.51 685.501 1058.78 683.621 1060.66C681.741 1062.54 679.469 1063.48 676.806 1063.48ZM830.67 1093.33L775.21 1216H763.225L708 1093.33H720.455L769.335 1203.07L818.685 1093.33H830.67ZM903.208 1206.36C911.198 1206.36 918.561 1204.95 925.298 1202.13C932.191 1199.16 937.909 1194.85 942.453 1189.21L949.268 1196.96C943.941 1203.54 937.283 1208.56 929.293 1212C921.303 1215.29 912.529 1216.94 902.973 1216.94C890.753 1216.94 879.786 1214.28 870.073 1208.95C860.516 1203.62 852.996 1196.26 847.513 1186.86C842.186 1177.46 839.523 1166.73 839.523 1154.66C839.523 1142.6 842.029 1131.87 847.043 1122.47C852.213 1113.07 859.341 1105.71 868.428 1100.38C877.514 1095.05 887.776 1092.39 899.213 1092.39C909.866 1092.39 919.423 1094.9 927.883 1099.91C936.499 1104.77 943.314 1111.58 948.328 1120.35C953.498 1128.97 956.318 1138.68 956.788 1149.49L853.153 1169.7C856.129 1180.98 862.083 1189.91 871.013 1196.49C879.943 1203.07 890.674 1206.36 903.208 1206.36ZM899.213 1102.73C889.969 1102.73 881.666 1104.92 874.303 1109.31C866.939 1113.54 861.221 1119.57 857.148 1127.4C853.074 1135.08 851.038 1143.85 851.038 1153.72C851.038 1155.45 851.194 1157.88 851.508 1161.01L945.038 1142.68C943.941 1135.32 941.356 1128.58 937.283 1122.47C933.209 1116.36 927.883 1111.58 921.303 1108.13C914.723 1104.53 907.359 1102.73 899.213 1102.73ZM1171.46 1216L1132.22 1161.01C1126.42 1161.79 1121.1 1162.18 1116.24 1162.18H1069.24V1216H1057.25V1051.5H1116.24C1136.92 1051.5 1153.13 1056.43 1164.88 1066.3C1176.63 1076.02 1182.51 1089.57 1182.51 1106.96C1182.51 1119.96 1179.14 1130.93 1172.4 1139.86C1165.82 1148.63 1156.35 1154.82 1143.97 1158.42L1185.09 1216H1171.46ZM1116.24 1151.61C1133.79 1151.61 1147.18 1147.77 1156.42 1140.09C1165.67 1132.26 1170.29 1121.22 1170.29 1106.96C1170.29 1092.7 1165.67 1081.74 1156.42 1074.06C1147.18 1066.23 1133.79 1062.31 1116.24 1062.31H1069.24V1151.61H1116.24ZM1272.92 1206.36C1280.91 1206.36 1288.27 1204.95 1295.01 1202.13C1301.9 1199.16 1307.62 1194.85 1312.16 1189.21L1318.98 1196.96C1313.65 1203.54 1306.99 1208.56 1299 1212C1291.01 1215.29 1282.24 1216.94 1272.68 1216.94C1260.46 1216.94 1249.5 1214.28 1239.78 1208.95C1230.23 1203.62 1222.71 1196.26 1217.22 1186.86C1211.9 1177.46 1209.23 1166.73 1209.23 1154.66C1209.23 1142.6 1211.74 1131.87 1216.75 1122.47C1221.92 1113.07 1229.05 1105.71 1238.14 1100.38C1247.23 1095.05 1257.49 1092.39 1268.92 1092.39C1279.58 1092.39 1289.13 1094.9 1297.59 1099.91C1306.21 1104.77 1313.03 1111.58 1318.04 1120.35C1323.21 1128.97 1326.03 1138.68 1326.5 1149.49L1222.86 1169.7C1225.84 1180.98 1231.79 1189.91 1240.72 1196.49C1249.65 1203.07 1260.39 1206.36 1272.92 1206.36ZM1268.92 1102.73C1259.68 1102.73 1251.38 1104.92 1244.01 1109.31C1236.65 1113.54 1230.93 1119.57 1226.86 1127.4C1222.79 1135.08 1220.75 1143.85 1220.75 1153.72C1220.75 1155.45 1220.91 1157.88 1221.22 1161.01L1314.75 1142.68C1313.65 1135.32 1311.07 1128.58 1306.99 1122.47C1302.92 1116.36 1297.59 1111.58 1291.01 1108.13C1284.43 1104.53 1277.07 1102.73 1268.92 1102.73ZM1393.87 1216.94C1384 1216.94 1374.6 1215.45 1365.67 1212.47C1356.74 1209.5 1349.77 1205.74 1344.75 1201.19L1350.16 1191.79C1355.17 1196.02 1361.6 1199.55 1369.43 1202.37C1377.42 1205.19 1385.72 1206.6 1394.34 1206.6C1406.72 1206.6 1415.8 1204.56 1421.6 1200.49C1427.55 1196.42 1430.53 1190.78 1430.53 1183.57C1430.53 1178.4 1428.88 1174.33 1425.59 1171.35C1422.46 1168.37 1418.54 1166.18 1413.84 1164.77C1409.14 1163.36 1402.64 1161.87 1394.34 1160.3C1384.63 1158.58 1376.79 1156.7 1370.84 1154.66C1364.89 1152.63 1359.79 1149.34 1355.56 1144.79C1351.33 1140.25 1349.22 1133.98 1349.22 1125.99C1349.22 1116.28 1353.21 1108.29 1361.2 1102.02C1369.35 1095.6 1380.87 1092.39 1395.75 1092.39C1403.58 1092.39 1411.34 1093.49 1419.01 1095.68C1426.69 1097.87 1432.96 1100.77 1437.81 1104.37L1432.41 1113.77C1427.4 1110.17 1421.68 1107.43 1415.25 1105.55C1408.83 1103.67 1402.25 1102.73 1395.51 1102.73C1384.08 1102.73 1375.46 1104.84 1369.66 1109.07C1363.87 1113.3 1360.97 1118.87 1360.97 1125.76C1360.97 1131.24 1362.61 1135.55 1365.9 1138.68C1369.19 1141.66 1373.19 1143.93 1377.89 1145.5C1382.75 1146.91 1389.48 1148.48 1398.1 1150.2C1407.66 1151.92 1415.33 1153.8 1421.13 1155.84C1427.08 1157.72 1432.1 1160.85 1436.17 1165.24C1440.24 1169.63 1442.28 1175.66 1442.28 1183.33C1442.28 1193.52 1438.05 1201.66 1429.59 1207.77C1421.13 1213.89 1409.22 1216.94 1393.87 1216.94ZM1525.36 1206.36C1533.35 1206.36 1540.71 1204.95 1547.45 1202.13C1554.34 1199.16 1560.06 1194.85 1564.61 1189.21L1571.42 1196.96C1566.09 1203.54 1559.44 1208.56 1551.45 1212C1543.46 1215.29 1534.68 1216.94 1525.13 1216.94C1512.91 1216.94 1501.94 1214.28 1492.23 1208.95C1482.67 1203.62 1475.15 1196.26 1469.67 1186.86C1464.34 1177.46 1461.68 1166.73 1461.68 1154.66C1461.68 1142.6 1464.18 1131.87 1469.2 1122.47C1474.37 1113.07 1481.49 1105.71 1490.58 1100.38C1499.67 1095.05 1509.93 1092.39 1521.37 1092.39C1532.02 1092.39 1541.58 1094.9 1550.04 1099.91C1558.65 1104.77 1565.47 1111.58 1570.48 1120.35C1575.65 1128.97 1578.47 1138.68 1578.94 1149.49L1475.31 1169.7C1478.28 1180.98 1484.24 1189.91 1493.17 1196.49C1502.1 1203.07 1512.83 1206.36 1525.36 1206.36ZM1521.37 1102.73C1512.12 1102.73 1503.82 1104.92 1496.46 1109.31C1489.09 1113.54 1483.37 1119.57 1479.3 1127.4C1475.23 1135.08 1473.19 1143.85 1473.19 1153.72C1473.19 1155.45 1473.35 1157.88 1473.66 1161.01L1567.19 1142.68C1566.09 1135.32 1563.51 1128.58 1559.44 1122.47C1555.36 1116.36 1550.04 1111.58 1543.46 1108.13C1536.88 1104.53 1529.51 1102.73 1521.37 1102.73ZM1724.33 1093.33V1216H1712.82V1187.09C1707.96 1196.65 1701.14 1204.01 1692.37 1209.18C1683.6 1214.35 1673.65 1216.94 1662.53 1216.94C1651.09 1216.94 1640.75 1214.28 1631.51 1208.95C1622.26 1203.62 1614.98 1196.26 1609.65 1186.86C1604.48 1177.46 1601.9 1166.73 1601.9 1154.66C1601.9 1142.6 1604.48 1131.87 1609.65 1122.47C1614.98 1112.91 1622.26 1105.55 1631.51 1100.38C1640.75 1095.05 1651.09 1092.39 1662.53 1092.39C1673.49 1092.39 1683.28 1094.97 1691.9 1100.14C1700.67 1105.31 1707.57 1112.52 1712.58 1121.76V1093.33H1724.33ZM1663.23 1206.36C1672.63 1206.36 1681.01 1204.17 1688.38 1199.78C1695.9 1195.4 1701.77 1189.29 1706 1181.46C1710.39 1173.62 1712.58 1164.69 1712.58 1154.66C1712.58 1144.64 1710.39 1135.71 1706 1127.87C1701.77 1120.04 1695.9 1113.93 1688.38 1109.54C1681.01 1105.16 1672.63 1102.96 1663.23 1102.96C1653.83 1102.96 1645.37 1105.16 1637.85 1109.54C1630.49 1113.93 1624.61 1120.04 1620.23 1127.87C1616 1135.71 1613.88 1144.64 1613.88 1154.66C1613.88 1164.69 1616 1173.62 1620.23 1181.46C1624.61 1189.29 1630.49 1195.4 1637.85 1199.78C1645.37 1204.17 1653.83 1206.36 1663.23 1206.36ZM1785.15 1120.12C1788.91 1111.19 1794.78 1104.37 1802.77 1099.67C1810.76 1094.82 1820.48 1092.39 1831.91 1092.39V1103.9L1829.09 1103.67C1815.46 1103.67 1804.81 1107.98 1797.13 1116.59C1789.46 1125.05 1785.62 1136.88 1785.62 1152.08V1216H1773.87V1093.33H1785.15V1120.12ZM1911.79 1216.94C1899.88 1216.94 1889.23 1214.28 1879.83 1208.95C1870.43 1203.62 1863.06 1196.26 1857.74 1186.86C1852.41 1177.3 1849.75 1166.57 1849.75 1154.66C1849.75 1142.6 1852.41 1131.87 1857.74 1122.47C1863.06 1112.91 1870.43 1105.55 1879.83 1100.38C1889.23 1095.05 1899.88 1092.39 1911.79 1092.39C1921.66 1092.39 1930.59 1094.35 1938.58 1098.26C1946.72 1102.02 1953.3 1107.59 1958.32 1114.95L1949.62 1121.29C1945.24 1115.18 1939.75 1110.64 1933.17 1107.66C1926.75 1104.53 1919.62 1102.96 1911.79 1102.96C1902.23 1102.96 1893.61 1105.16 1885.94 1109.54C1878.42 1113.77 1872.46 1119.81 1868.08 1127.64C1863.85 1135.47 1861.73 1144.48 1861.73 1154.66C1861.73 1164.85 1863.85 1173.86 1868.08 1181.69C1872.46 1189.52 1878.42 1195.63 1885.94 1200.02C1893.61 1204.25 1902.23 1206.36 1911.79 1206.36C1919.62 1206.36 1926.75 1204.88 1933.17 1201.9C1939.75 1198.77 1945.24 1194.14 1949.62 1188.03L1958.32 1194.38C1953.3 1201.74 1946.72 1207.38 1938.58 1211.3C1930.59 1215.06 1921.66 1216.94 1911.79 1216.94ZM2051.35 1092.39C2066.71 1092.39 2078.85 1096.85 2087.78 1105.78C2096.71 1114.71 2101.17 1127.56 2101.17 1144.32V1216H2089.42V1145.26C2089.42 1131.48 2085.9 1120.98 2078.85 1113.77C2071.96 1106.57 2062.24 1102.96 2049.71 1102.96C2035.3 1102.96 2023.94 1107.27 2015.63 1115.89C2007.33 1124.51 2003.18 1136.1 2003.18 1150.67V1216H1991.43V1041.63H2003.18V1118.94C2007.41 1110.48 2013.68 1103.98 2021.98 1099.44C2030.28 1094.74 2040.07 1092.39 2051.35 1092.39ZM2213.67 1051.5H2225.65V1205.19H2320.36V1216H2213.67V1051.5ZM2454.35 1093.33V1216H2442.83V1187.09C2437.97 1196.65 2431.16 1204.01 2422.39 1209.18C2413.61 1214.35 2403.66 1216.94 2392.54 1216.94C2381.1 1216.94 2370.76 1214.28 2361.52 1208.95C2352.28 1203.62 2344.99 1196.26 2339.67 1186.86C2334.5 1177.46 2331.91 1166.73 2331.91 1154.66C2331.91 1142.6 2334.5 1131.87 2339.67 1122.47C2344.99 1112.91 2352.28 1105.55 2361.52 1100.38C2370.76 1095.05 2381.1 1092.39 2392.54 1092.39C2403.51 1092.39 2413.3 1094.97 2421.92 1100.14C2430.69 1105.31 2437.58 1112.52 2442.6 1121.76V1093.33H2454.35ZM2393.25 1206.36C2402.65 1206.36 2411.03 1204.17 2418.39 1199.78C2425.91 1195.4 2431.79 1189.29 2436.02 1181.46C2440.4 1173.62 2442.6 1164.69 2442.6 1154.66C2442.6 1144.64 2440.4 1135.71 2436.02 1127.87C2431.79 1120.04 2425.91 1113.93 2418.39 1109.54C2411.03 1105.16 2402.65 1102.96 2393.25 1102.96C2383.85 1102.96 2375.39 1105.16 2367.87 1109.54C2360.5 1113.93 2354.63 1120.04 2350.24 1127.87C2346.01 1135.71 2343.9 1144.64 2343.9 1154.66C2343.9 1164.69 2346.01 1173.62 2350.24 1181.46C2354.63 1189.29 2360.5 1195.4 2367.87 1199.78C2375.39 1204.17 2383.85 1206.36 2393.25 1206.36ZM2565.45 1092.39C2576.89 1092.39 2587.23 1095.05 2596.47 1100.38C2605.72 1105.55 2612.92 1112.91 2618.09 1122.47C2623.42 1131.87 2626.08 1142.6 2626.08 1154.66C2626.08 1166.73 2623.42 1177.46 2618.09 1186.86C2612.92 1196.26 2605.72 1203.62 2596.47 1208.95C2587.23 1214.28 2576.89 1216.94 2565.45 1216.94C2554.49 1216.94 2544.54 1214.35 2535.61 1209.18C2526.84 1203.86 2520.02 1196.49 2515.16 1187.09V1216H2503.88V1041.63H2515.63V1121.29C2520.49 1112.21 2527.31 1105.16 2536.08 1100.14C2544.85 1094.97 2554.64 1092.39 2565.45 1092.39ZM2564.75 1206.36C2574.15 1206.36 2582.61 1204.17 2590.13 1199.78C2597.65 1195.4 2603.52 1189.29 2607.75 1181.46C2612.14 1173.62 2614.33 1164.69 2614.33 1154.66C2614.33 1144.64 2612.14 1135.71 2607.75 1127.87C2603.52 1120.04 2597.65 1113.93 2590.13 1109.54C2582.61 1105.16 2574.15 1102.96 2564.75 1102.96C2555.35 1102.96 2546.89 1105.16 2539.37 1109.54C2532.01 1113.93 2526.13 1120.04 2521.74 1127.87C2517.51 1135.71 2515.4 1144.64 2515.4 1154.66C2515.4 1164.69 2517.51 1173.62 2521.74 1181.46C2526.13 1189.29 2532.01 1195.4 2539.37 1199.78C2546.89 1204.17 2555.35 1206.36 2564.75 1206.36Z" fill="#B5DAD9"/>
</svg>
