<svg width="951" height="1075" viewBox="0 0 951 1075" fill="none" xmlns="http://www.w3.org/2000/svg">
<path d="M446.458 81.5797C443.914 63.5155 441.37 45.9602 438.571 28.4049C438.317 27.3872 438.062 26.3695 438.062 25.3518C434.755 1.69034 440.098 -3.14373 465.031 1.69034C467.321 28.6594 469.611 56.1372 471.647 82.0886C503.45 87.9403 534.744 91.2478 564.766 99.6439C668.062 128.648 761.945 176.226 839.29 252.299C896.79 308.781 930.629 377.73 941.569 457.619C945.894 488.659 950.474 519.953 950.983 551.248C951.237 584.577 948.693 618.161 943.604 651.237C934.445 710.518 926.812 770.562 910.784 828.316C874.655 958.836 788.66 1039.23 654.578 1065.19C566.038 1082.23 478.516 1073.84 391.248 1053.99C321.027 1038.22 254.622 1013.28 194.324 973.593C98.1511 910.241 40.6511 821.447 19.025 708.737C8.33919 652.763 -2.34665 596.535 0.452023 539.035C5.28609 432.431 41.4144 337.022 105.529 252.044C134.788 213.117 165.574 175.717 205.518 146.967C256.149 110.584 313.14 90.9934 374.711 84.8872C397.863 82.8518 421.27 82.5974 446.458 81.5797ZM448.494 89.4669C422.034 90.739 397.609 90.4846 373.693 93.0288C310.087 99.6438 251.824 120.507 201.956 161.215C150.054 203.704 110.109 256.878 77.2883 314.887C32.2551 394.013 10.1202 479.5 12.41 570.838C13.6821 617.144 22.587 662.431 30.983 707.719C53.8812 828.825 118.759 919.909 224.855 982.243C282.355 1016.08 344.689 1036.69 409.567 1049.92C487.166 1065.95 565.02 1072.06 643.638 1057.04C769.578 1033.13 851.503 957.564 889.666 836.967C912.819 764.201 920.452 687.874 929.611 612.31C935.717 561.679 930.629 511.303 923.505 461.181C912.056 381.038 879.489 311.071 821.226 254.843C737.775 174.445 638.04 123.814 525.076 99.3894C508.029 95.5731 490.22 94.3009 472.919 91.7567C471.647 125.086 469.102 156.381 469.357 187.675C469.357 213.881 472.664 240.086 474.191 266.292C476.735 307.763 479.788 349.489 481.569 390.96C482.078 402.664 486.912 404.699 497.089 405.208C522.531 405.971 548.228 408.261 573.671 408.77C586.392 409.024 599.368 407.752 611.835 406.226C618.195 405.462 624.047 402.155 630.408 400.628C636.259 399.102 641.857 400.119 642.111 407.752C642.111 413.858 645.927 422.254 634.224 422.763C615.905 423.526 597.587 424.799 579.268 425.816C550.009 427.343 520.751 429.124 491.237 430.65C476.989 431.414 467.067 424.799 462.996 411.823C459.434 400.119 456.127 387.907 455.872 375.949C455.109 336.768 457.908 297.332 454.855 258.15C452.31 226.347 449.257 195.053 450.02 163.25C450.529 139.843 449.003 115.927 448.494 89.4669Z" fill="#B5DAD9"/>
<path d="M712.078 945.607C713.35 938.229 715.131 930.85 715.895 923.217C720.729 876.403 724.799 829.335 730.651 782.775C733.959 757.078 741.846 731.89 744.39 706.193C746.934 682.532 744.899 658.616 745.153 634.7C745.153 627.322 745.662 619.689 746.68 612.31C747.698 603.914 751.005 596.536 760.928 596.282C770.596 596.027 779.246 599.844 781.536 609.766C783.572 618.162 784.08 627.576 782.554 635.972C776.193 667.266 766.525 698.306 761.691 729.855C755.076 773.361 751.514 817.377 747.189 861.138C743.627 896.757 740.574 932.631 738.03 968.251C737.266 977.664 738.538 987.332 740.319 996.492C743.627 1013.54 737.266 1020.66 719.965 1017.61C702.665 1014.56 690.452 1004.12 684.855 987.841C678.749 970.54 674.932 952.476 669.844 934.667C654.069 877.421 638.549 820.176 622.775 762.93C615.397 735.961 608.527 708.738 600.895 682.023C599.368 676.171 596.315 670.574 593.771 664.722C592.753 664.976 591.735 665.231 590.718 665.231C589.954 670.828 588.937 676.171 588.682 681.768C587.665 749.445 586.392 817.122 586.647 884.545C586.647 905.662 590.972 926.525 592.753 947.642C594.025 963.417 590.209 970.795 581.05 972.83C568.837 975.375 553.317 966.979 550.01 954.766C547.974 946.879 547.465 937.72 548.738 929.578C553.317 902.355 559.932 875.386 564.003 848.162C572.908 790.662 570.364 733.162 560.696 675.917C557.897 659.633 557.388 642.587 557.642 626.049C557.897 612.819 565.021 602.134 575.707 594.246C584.611 587.631 592.753 588.903 596.315 599.335C600.895 612.056 603.184 625.541 606.492 638.771C610.054 653.273 611.326 668.793 617.432 682.277C650.762 756.315 672.897 834.169 694.777 912.023C697.576 922.2 701.392 932.122 704.954 942.045C705.463 943.571 706.99 944.589 708.007 945.861C709.788 945.607 711.061 945.607 712.078 945.607Z" fill="#B5DAD9"/>
<path d="M496.071 1005.65C492.509 1005.9 489.711 1005.9 487.166 1006.66C466.558 1013.03 445.441 1013.03 424.323 1009.97C406.514 1007.68 391.503 1000.05 381.834 984.53C367.332 961.122 355.12 937.206 358.936 907.693C360.463 894.718 358.682 881.233 357.919 867.749C355.629 819.917 364.025 775.138 398.118 738.755C409.312 726.797 423.815 719.673 439.08 714.839C456.126 709.242 460.452 701.1 453.837 684.563C443.405 658.103 424.323 641.565 395.319 638.512C383.107 637.24 370.64 636.985 360.717 628.08C358.936 626.554 356.646 625.027 355.629 622.992C353.339 618.667 351.812 614.087 350.031 609.508C354.611 608.49 359.191 606.454 363.516 606.709C384.888 607.981 406.259 610.016 427.631 611.797C440.607 612.815 449.511 620.193 456.635 630.625C472.155 653.523 482.078 678.965 488.438 705.68C497.343 742.063 507.52 778.445 512.863 815.337C517.443 847.903 516.171 881.487 516.68 914.563C516.934 934.408 514.39 953.999 514.899 973.844C515.153 985.038 518.461 996.233 521.514 1007.17C523.295 1013.53 529.401 1020.66 521.514 1025.49C516.425 1028.54 508.284 1029.82 502.686 1028.29C494.545 1026.26 493.781 1018.11 495.053 1010.48C495.308 1008.95 495.562 1007.94 496.071 1005.65ZM498.107 945.348C498.107 944.33 497.852 941.277 497.598 938.224C494.545 911.001 491.492 884.032 488.438 856.808C484.368 821.189 481.06 785.569 476.48 749.95C474.191 731.631 463.505 726.288 446.458 733.158C426.104 741.299 410.33 755.038 401.171 775.392C379.799 823.479 372.166 873.346 380.053 925.503C385.651 961.886 399.899 977.914 431.193 985.038C446.204 988.346 460.706 987.074 475.208 980.968C492.509 973.589 498.107 965.957 498.107 945.348Z" fill="#B5DAD9"/>
<path d="M785.86 582.798C781.026 583.816 777.464 584.071 773.902 585.088C752.785 591.194 731.159 591.449 710.041 586.615C698.592 584.071 685.617 578.473 678.493 569.823C659.411 547.179 646.181 521.482 648.216 489.679C649.488 469.325 647.198 448.717 647.198 428.363C647.198 396.814 654.068 366.792 670.097 339.06C683.327 316.161 702.409 300.641 727.597 292.754C745.915 286.903 750.495 277.743 742.862 260.188C731.413 234.237 712.331 217.953 682.818 215.664C667.044 214.392 652.033 211.847 642.619 197.091C640.838 194.292 640.583 190.221 639.566 186.914C642.619 186.15 645.926 184.369 648.979 184.369C671.369 185.642 694.013 187.168 716.402 188.949C729.632 189.967 739.3 197.091 746.424 208.031C763.216 233.473 773.393 261.714 780.517 290.973C788.404 324.049 797.818 357.124 802.397 390.708C806.723 421.748 805.959 453.296 806.214 484.845C806.468 506.217 805.451 527.843 804.178 549.214C803.415 561.936 804.687 573.639 810.794 584.834C813.847 590.431 818.426 597.809 811.557 602.135C806.214 605.442 797.818 606.969 791.966 605.442C784.079 603.407 783.061 595.265 784.333 587.633C784.588 586.615 785.097 585.597 785.86 582.798ZM665.771 465.254C667.044 477.467 667.552 489.679 669.333 501.891C675.694 545.398 700.882 569.059 742.608 564.225C777.464 560.155 791.457 549.469 786.878 514.867C783.316 487.898 780.771 460.675 777.718 433.451C773.902 398.086 770.34 362.976 765.76 327.61C763.216 309.037 752.276 303.695 734.72 311.073C712.586 320.487 696.811 336.261 687.906 358.65C674.167 392.743 666.026 428.108 665.771 465.254Z" fill="#B5DAD9"/>
<path d="M212.134 846.634C212.643 841.291 213.406 835.948 213.406 830.605C213.406 765.218 230.198 703.647 259.457 645.639C268.107 628.338 277.012 611.037 285.917 593.736C287.444 590.683 289.225 587.63 291.514 585.34C296.857 579.997 299.656 569.057 310.087 573.636C317.975 577.198 321.537 595.517 316.957 603.913C287.444 659.377 261.747 716.623 238.849 775.141C228.926 800.838 229.18 827.298 227.908 853.758C227.399 862.154 226.891 870.804 225.618 879.2C224.092 890.141 217.731 893.957 207.3 890.65C196.614 887.342 189.49 880.473 188.727 868.769C186.692 841.291 184.402 813.559 182.875 786.081C180.331 736.468 171.426 687.873 159.468 639.787C154.38 619.942 149.8 600.097 145.22 579.997C142.93 570.329 146.238 564.731 154.634 562.951C164.048 560.661 167.864 566.004 168.882 574.4C171.935 597.807 174.734 621.214 178.296 644.366C187.709 708.227 197.377 771.833 206.791 835.694C207.3 839.256 208.318 842.818 209.335 846.634C210.607 846.38 211.371 846.38 212.134 846.634Z" fill="#B5DAD9"/>
<path d="M441.624 441.338C439.843 453.042 437.808 476.703 432.465 499.347C423.051 540.564 388.195 560.918 343.925 553.794C288.461 544.635 259.965 516.139 250.043 460.929C242.919 421.239 248.516 384.347 270.905 350.254C294.312 314.635 327.642 302.422 367.332 318.197C423.051 340.586 441.879 375.697 441.624 441.338ZM428.394 430.144C428.903 384.856 409.312 353.053 368.096 334.989C336.547 321.25 302.2 325.066 280.574 359.159C261.237 389.69 255.64 421.748 262.255 457.113C270.651 501.891 294.058 526.316 338.582 535.221C380.308 543.617 411.348 525.299 419.998 485.608C424.069 467.544 425.596 448.717 428.394 430.144Z" fill="#B5DAD9"/>
<path d="M203.228 394.779C204.754 390.454 206.79 386.383 207.807 382.058C220.528 334.735 236.303 288.684 259.455 245.432C263.526 238.053 268.615 230.929 273.703 224.314C277.52 219.48 281.845 219.989 285.152 225.332C289.732 232.965 291.767 239.325 284.389 247.976C256.148 280.033 238.847 318.197 228.416 359.414C221.546 387.146 214.931 415.133 209.079 443.12C207.298 451.77 208.062 460.929 207.298 469.58C206.79 474.414 205.517 479.502 198.902 478.739C192.542 477.976 184.4 479.757 183.637 469.58C182.365 451.516 180.584 433.451 179.821 415.387C177.531 358.396 166.336 302.932 153.36 247.721C151.834 241.87 150.562 235.764 150.307 229.657C150.053 219.989 156.668 214.646 167.354 215.664C177.785 216.427 182.619 221.516 181.347 231.438C180.838 236.527 178.294 241.361 178.294 246.449C177.785 257.644 175.75 269.348 178.803 279.779C188.217 313.363 196.104 347.202 198.139 382.058C198.394 386.128 199.666 390.454 200.683 394.525C201.447 394.525 202.464 394.525 203.228 394.779Z" fill="#B5DAD9"/>
</svg>
